<?xml version="1.0" encoding="UTF-8" standalone="no"?>
<!-- Created with Inkscape (http://www.inkscape.org/) -->

<svg
   xmlns:dc="http://purl.org/dc/elements/1.1/"
   xmlns:cc="http://creativecommons.org/ns#"
   xmlns:rdf="http://www.w3.org/1999/02/22-rdf-syntax-ns#"
   xmlns:svg="http://www.w3.org/2000/svg"
   xmlns="http://www.w3.org/2000/svg"
   xmlns:sodipodi="http://sodipodi.sourceforge.net/DTD/sodipodi-0.dtd"
   xmlns:inkscape="http://www.inkscape.org/namespaces/inkscape"
   width="128"
   height="128"
   viewBox="0 0 33.866667 33.866668"
   version="1.1"
   id="svg8"
   inkscape:version="0.92.4 (5da689c313, 2019-01-14)"
   sodipodi:docname="icon.svg"
   inkscape:export-filename="gdx-vfx-icon128.png"
   inkscape:export-xdpi="96"
   inkscape:export-ydpi="96">
  <defs
     id="defs2" />
  <sodipodi:namedview
     id="base"
     pagecolor="#ffffff"
     bordercolor="#666666"
     borderopacity="1.0"
     inkscape:pageopacity="1"
     inkscape:pageshadow="2"
     inkscape:zoom="1.4142136"
     inkscape:cx="243.17447"
     inkscape:cy="24.185906"
     inkscape:document-units="px"
     inkscape:current-layer="layer1"
     showgrid="false"
     units="px"
     inkscape:pagecheckerboard="false"
     borderlayer="true"
     inkscape:window-width="2482"
     inkscape:window-height="1411"
     inkscape:window-x="1509"
     inkscape:window-y="403"
     inkscape:window-maximized="1"
     fit-margin-top="0"
     fit-margin-left="0"
     fit-margin-right="0"
     fit-margin-bottom="0"
     inkscape:snap-bbox="true"
     inkscape:bbox-paths="true"
     inkscape:bbox-nodes="true"
     inkscape:snap-global="true" />
  <metadata
     id="metadata5">
    <rdf:RDF>
      <cc:Work
         rdf:about="">
        <dc:format>image/svg+xml</dc:format>
        <dc:type
           rdf:resource="http://purl.org/dc/dcmitype/StillImage" />
        <dc:title />
      </cc:Work>
    </rdf:RDF>
  </metadata>
  <g
     inkscape:label="Layer 1"
     inkscape:groupmode="layer"
     id="layer1"
     transform="translate(-259.54043,-142.28751)"
     inkscape:export-xdpi="96.0"
     inkscape:export-ydpi="96.0">
    <g
       style="stroke-width:1.40625"
       id="g2526"
       transform="matrix(0.71111112,0,0,0.71111112,-60.367615,-242.82844)">
      <path
         inkscape:connector-curvature="0"
         style="font-style:normal;font-variant:normal;font-weight:bold;font-stretch:normal;font-size:42.33333588px;line-height:1.25;font-family:Poppins;-inkscape-font-specification:Poppins;letter-spacing:0px;word-spacing:0px;fill:#ff006e;fill-opacity:1;stroke:none;stroke-width:0.37207034"
         d="m 454.18721,475.84392 10.4192,15.34581 -10.4192,15.34523 h 8.81287 l 6.01305,-8.8559 6.01302,8.8559 h 8.81341 l -10.41973,-15.34523 10.41973,-15.34581 h -8.81341 l -6.01302,8.85594 -6.01305,-8.85594 z"
         id="path2496" />
      <path
         style="font-style:normal;font-variant:normal;font-weight:bold;font-stretch:normal;font-size:42.33333588px;line-height:1.25;font-family:Poppins;-inkscape-font-specification:Poppins;letter-spacing:0px;word-spacing:0px;fill:#ffbe0b;fill-opacity:1;stroke:none;stroke-width:1.00000012"
         d="M 35.996094,22.755859 64,64 35.996094,105.24414 H 52.310547 59.681641 64 V 98.884766 L 75.84375,81.441406 92.003906,105.24414 H 115.69141 L 87.6875,64 115.69141,22.755859 H 92.003906 L 75.84375,46.558594 64,29.115234 v -6.359375 h -4.318359 -7.779297 z"
         transform="matrix(0.37207032,0,0,0.37207032,449.60759,467.37694)"
         id="path2498"
         inkscape:connector-curvature="0" />
      <path
         style="font-style:normal;font-variant:normal;font-weight:bold;font-stretch:normal;font-size:42.33333588px;line-height:1.25;font-family:Poppins;-inkscape-font-specification:Poppins;letter-spacing:0px;word-spacing:0px;fill:#ff006e;fill-opacity:1;stroke:none;stroke-width:1.00000012"
         d="M 12.308594,22.755859 40.3125,64 12.308594,105.24414 H 35.994141 L 52.15625,81.441406 64,98.884766 v 0.002 6.357424 h 4.316406 2.78711 20.90039 L 64,64 92.003906,22.755859 H 64 v 6.357422 0.002 L 52.15625,46.558594 35.994141,22.755859 Z"
         transform="matrix(0.37207032,0,0,0.37207032,449.60759,467.37694)"
         id="path3131"
         inkscape:connector-curvature="0" />
      <path
         id="path2518"
         transform="matrix(0.26458334,0,0,0.26458334,272.20446,154.90402)"
         d="m 760.5,1221.9434 -16.65625,24.5293 16.6543,24.5293 16.65625,-24.5293 z m -0.002,49.0586 -16.6543,24.5273 16.65625,24.5273 16.65234,-24.5273 z"
         style="font-style:normal;font-variant:normal;font-weight:bold;font-stretch:normal;font-size:42.33333588px;line-height:1.25;font-family:Poppins;-inkscape-font-specification:Poppins;letter-spacing:0px;word-spacing:0px;fill:#8338ec;fill-opacity:1;stroke:none;stroke-width:1.40625"
         inkscape:connector-curvature="0" />
    </g>
    <g
       id="g2039"
       transform="matrix(0.71112084,0,0,0.71112084,41.046074,64.063182)"
       style="stroke-width:1.40623081">
      <path
         id="path2114"
         d="m 311.83303,118.46811 10.4192,15.34581 -10.4192,15.34523 h 8.81287 l 6.01305,-8.8559 6.01302,8.8559 h 8.81341 l -10.41974,-15.34523 10.41974,-15.34581 h -8.81341 l -6.01302,8.85594 -6.01305,-8.85594 z"
         style="font-style:normal;font-variant:normal;font-weight:bold;font-stretch:normal;font-size:42.33333588px;line-height:1.25;font-family:Poppins;-inkscape-font-specification:Poppins;letter-spacing:0px;word-spacing:0px;fill:#ff006e;fill-opacity:1;stroke:none;stroke-width:0.37206525"
         inkscape:connector-curvature="0" />
      <path
         inkscape:connector-curvature="0"
         style="font-style:normal;font-variant:normal;font-weight:bold;font-stretch:normal;font-size:42.33333588px;line-height:1.25;font-family:Poppins;-inkscape-font-specification:Poppins;letter-spacing:0px;word-spacing:0px;fill:#ffbe0b;fill-opacity:1;stroke:none;stroke-width:0.37206525"
         d="m 320.6459,118.46811 10.4192,15.34581 -10.4192,15.34523 h 8.81287 l 6.01305,-8.8559 6.01302,8.8559 h 8.81341 l -10.41974,-15.34523 10.41974,-15.34581 h -8.81341 l -6.01302,8.85594 -6.01305,-8.85594 z"
         id="path2012" />
      <path
         id="path2031"
         transform="matrix(0.26458334,0,0,0.26458334,259.54043,142.28751)"
         d="m 309.71094,-90.025391 -22.72656,33.470703 -16.6543,-24.527343 -16.6543,24.527343 16.6543,24.529297 L 253.67578,-7.5 270.33008,17.027344 286.98438,-7.5 l -16.65235,-24.525391 39.38086,-58 z M 286.98438,-7.5 309.71094,25.970703 h 0.002 z"
         style="font-style:normal;font-variant:normal;font-weight:bold;font-stretch:normal;font-size:42.33333588px;line-height:1.25;font-family:Poppins;-inkscape-font-specification:Poppins;letter-spacing:0px;word-spacing:0px;fill:#8338ec;fill-opacity:1;stroke:none;stroke-width:1.40623081"
         inkscape:connector-curvature="0" />
    </g>
  </g>
</svg>
