<?xml version="1.0" encoding="UTF-8" standalone="no"?>
<!-- Created with Inkscape (http://www.inkscape.org/) -->

<svg
   xmlns:dc="http://purl.org/dc/elements/1.1/"
   xmlns:cc="http://creativecommons.org/ns#"
   xmlns:rdf="http://www.w3.org/1999/02/22-rdf-syntax-ns#"
   xmlns:svg="http://www.w3.org/2000/svg"
   xmlns="http://www.w3.org/2000/svg"
   xmlns:sodipodi="http://sodipodi.sourceforge.net/DTD/sodipodi-0.dtd"
   xmlns:inkscape="http://www.inkscape.org/namespaces/inkscape"
   width="360"
   height="115.99999"
   viewBox="0 0 95.25 30.691666"
   version="1.1"
   id="svg8"
   inkscape:version="0.92.4 (5da689c313, 2019-01-14)"
   sodipodi:docname="logo.svg"
   inkscape:export-filename="C:\Users\Anton\Desktop\bitmap.png"
   inkscape:export-xdpi="96"
   inkscape:export-ydpi="96">
  <defs
     id="defs2" />
  <sodipodi:namedview
     id="base"
     pagecolor="#ffffff"
     bordercolor="#666666"
     borderopacity="1.0"
     inkscape:pageopacity="0.0"
     inkscape:pageshadow="2"
     inkscape:zoom="0.25"
     inkscape:cx="1369.8431"
     inkscape:cy="24.577557"
     inkscape:document-units="px"
     inkscape:current-layer="layer1"
     showgrid="false"
     units="px"
     inkscape:pagecheckerboard="false"
     borderlayer="true"
     inkscape:window-width="2482"
     inkscape:window-height="1411"
     inkscape:window-x="1509"
     inkscape:window-y="403"
     inkscape:window-maximized="1"
     inkscape:snap-global="true"
     inkscape:object-paths="true"
     inkscape:snap-intersection-paths="true"
     inkscape:snap-smooth-nodes="true"
     inkscape:snap-bbox="true"
     inkscape:bbox-paths="true"
     inkscape:bbox-nodes="true"
     inkscape:snap-bbox-edge-midpoints="true"
     inkscape:snap-bbox-midpoints="true"
     fit-margin-top="0"
     fit-margin-left="0"
     fit-margin-right="0"
     fit-margin-bottom="0" />
  <metadata
     id="metadata5">
    <rdf:RDF>
      <cc:Work
         rdf:about="">
        <dc:format>image/svg+xml</dc:format>
        <dc:type
           rdf:resource="http://purl.org/dc/dcmitype/StillImage" />
        <dc:title></dc:title>
      </cc:Work>
    </rdf:RDF>
  </metadata>
  <g
     inkscape:label="Layer 1"
     inkscape:groupmode="layer"
     id="layer1"
     transform="translate(-272.20446,-154.90402)"
     inkscape:export-xdpi="96.0"
     inkscape:export-ydpi="96.0">
    <g
       id="g1878"
       transform="translate(-26.01487,-113.61262)">
      <rect
         y="326.18579"
         x="298.21933"
         height="16.933334"
         width="16.933334"
         id="rect1863"
         style="opacity:1;fill:#ffbe0b;fill-opacity:1;stroke:none;stroke-width:0.26458335;stroke-linecap:round;stroke-linejoin:round;stroke-miterlimit:4;stroke-dasharray:none;stroke-dashoffset:0;stroke-opacity:1;paint-order:fill markers stroke" />
      <rect
         style="opacity:1;fill:#fb5607;fill-opacity:1;stroke:none;stroke-width:0.26458335;stroke-linecap:round;stroke-linejoin:round;stroke-miterlimit:4;stroke-dasharray:none;stroke-dashoffset:0;stroke-opacity:1;paint-order:fill markers stroke"
         id="rect1865"
         width="16.933334"
         height="16.933334"
         x="315.15265"
         y="326.18582" />
      <rect
         y="326.18582"
         x="332.086"
         height="16.933334"
         width="16.933334"
         id="rect1867"
         style="opacity:1;fill:#ff006e;fill-opacity:1;stroke:none;stroke-width:0.26458335;stroke-linecap:round;stroke-linejoin:round;stroke-miterlimit:4;stroke-dasharray:none;stroke-dashoffset:0;stroke-opacity:1;paint-order:fill markers stroke" />
      <rect
         style="opacity:1;fill:#8338ec;fill-opacity:1;stroke:none;stroke-width:0.26458335;stroke-linecap:round;stroke-linejoin:round;stroke-miterlimit:4;stroke-dasharray:none;stroke-dashoffset:0;stroke-opacity:1;paint-order:fill markers stroke"
         id="rect1869"
         width="16.933334"
         height="16.933334"
         x="349.01935"
         y="326.18582" />
      <rect
         y="326.18582"
         x="365.9527"
         height="16.933334"
         width="16.933334"
         id="rect1871"
         style="opacity:1;fill:#3a86ff;fill-opacity:1;stroke:none;stroke-width:0.26458335;stroke-linecap:round;stroke-linejoin:round;stroke-miterlimit:4;stroke-dasharray:none;stroke-dashoffset:0;stroke-opacity:1;paint-order:fill markers stroke" />
    </g>
    <g
       transform="matrix(1.0255546,0,0,1.0254479,-82.073616,-58.811643)"
       id="g2128"
       style="stroke-width:0.97513282">
      <g
         id="g2116"
         transform="translate(204.7875,-16.933334)"
         style="stroke-width:0.97513282">
        <path
           id="path2110"
           transform="matrix(0.26458334,0,0,0.26458334,0,11.249941)"
           d="m 586.94141,809.17969 c -11.10252,0 -20.84341,2.40846 -29.22266,7.22656 -8.27452,4.71334 -14.71565,11.36438 -19.32422,19.95313 -4.50387,8.58874 -6.75586,18.38307 -6.75586,29.38085 0,10.99779 2.25199,20.79016 6.75586,29.37891 4.60857,8.58875 11.10118,15.29161 19.48047,20.10938 8.37925,4.71344 18.17362,7.07031 29.38086,7.07031 9.21717,0 17.38736,-1.72722 24.50976,-5.1836 7.2271,-3.45637 13.14339,-7.9605 17.75196,-13.51171 4.6086,-5.55126 7.96184,-11.57442 10.05664,-18.06836 v -26.55078 h -61.46875 l 6.69531,19.32421 h 27.80664 l 1.97656,6.08008 c -1.94943,3.63743 -4.50334,6.647 -7.68945,9.00195 -4.8181,3.45646 -10.42137,5.18555 -16.81055,5.18555 -9.9504,0 -17.64917,-2.82839 -23.0957,-8.48437 -5.34176,-5.65599 -8.01367,-13.77274 -8.01367,-24.35157 0,-9.7409 2.56696,-17.43971 7.69922,-23.0957 5.13233,-5.76075 11.93981,-8.64062 20.42383,-8.64062 5.44648,0 10.10896,1.20424 13.98437,3.61328 3.87542,2.3043 6.75528,5.44563 8.64063,9.42578 h 28.4375 c -2.19954,-11.62624 -7.80479,-20.84225 -16.8125,-27.65039 -9.00771,-6.80818 -20.47571,-10.21289 -34.40625,-10.21289 z"
           style="font-style:normal;font-variant:normal;font-weight:bold;font-stretch:normal;font-size:42.33333588px;line-height:1.25;font-family:Poppins;-inkscape-font-specification:'Poppins Bold';letter-spacing:0px;word-spacing:0px;fill:#ffbe0b;fill-opacity:1;stroke:none;stroke-width:0.97513282"
           inkscape:connector-curvature="0" />
        <path
           inkscape:connector-curvature="0"
           id="path2112"
           style="font-style:normal;font-variant:normal;font-weight:bold;font-stretch:normal;font-size:42.33333588px;line-height:1.25;font-family:Poppins;-inkscape-font-specification:'Poppins Bold';letter-spacing:0px;word-spacing:0px;fill:#ffbe0b;fill-opacity:1;stroke:none;stroke-width:0.25800392"
           d="m 200.4591,240.24668 q 0,4.40267 -1.905,7.83167 -1.86267,3.38661 -5.41867,5.29161 -3.51366,1.905 -8.29733,1.905 h -11.303 v -29.92961 h 11.303 q 4.826,0 8.33967,1.86266 3.51366,1.86267 5.37633,5.24934 1.905,3.38666 1.905,7.78933 z m -16.256,8.55133 q 4.23333,0 6.56167,-2.24366 2.37066,-2.24367 2.37066,-6.30767 0,-4.064 -2.37066,-6.30767 -2.32834,-2.24366 -6.56167,-2.24366 h -3.429 v 17.10266 z" />
        <path
           inkscape:connector-curvature="0"
           style="font-style:normal;font-variant:normal;font-weight:bold;font-stretch:normal;font-size:42.33333588px;line-height:1.25;font-family:Poppins;-inkscape-font-specification:Poppins;letter-spacing:0px;word-spacing:0px;fill:#ffbe0b;fill-opacity:1;stroke:none;stroke-width:0.25800392"
           d="m 204.62583,225.34546 10.15958,14.96498 -10.15958,14.96442 h 8.59327 l 5.86322,-8.63613 5.86319,8.63613 h 8.5938 l -10.1601,-14.96442 10.1601,-14.96498 h -8.5938 l -5.86319,8.63617 -5.86322,-8.63617 z"
           id="path2114" />
      </g>
      <g
         id="g2124"
         transform="translate(204.7875,-16.933334)"
         style="stroke-width:0.97513282">
        <path
           id="path2118"
           d="m 155.29478,225.34539 c -2.39416,0 -4.54867,0.42397 -6.46422,1.27072 l 9.93171,28.65875 h 9.35549 l 10.41384,-29.92947 h -7.74682 l -7.32359,22.52113 -7.31737,-22.50253 c -0.27947,-0.0109 -0.56165,-0.0186 -0.84904,-0.0186 z"
           style="font-style:normal;font-variant:normal;font-weight:bold;font-stretch:normal;font-size:42.33333588px;line-height:1.25;font-family:Poppins;-inkscape-font-specification:Poppins;letter-spacing:0px;word-spacing:0px;fill:#ff006e;fill-opacity:1;stroke:none;stroke-width:0.25800392"
           inkscape:connector-curvature="0" />
        <path
           id="path2120"
           d="m 180.77436,225.34539 v 6.35 17.10283 6.47714 h 1.8991 v -5e-4 h 2.16472 c 1.1104,0 2.16752,-0.08 3.175,-0.2341 v -6.82285 -5.04984 h 12.21735 c 0.15118,-0.93541 0.22894,-1.90857 0.22894,-2.92126 0,-0.89215 -0.0594,-1.75268 -0.17674,-2.58226 h -12.26955 v -5.38832 -1.17356 h 9.68364 8.92969 l -4.10104,-5.75728 h -17.68729 z"
           style="font-style:normal;font-variant:normal;font-weight:bold;font-stretch:normal;font-size:42.33333588px;line-height:1.25;font-family:Poppins;-inkscape-font-specification:Poppins;letter-spacing:0px;word-spacing:0px;fill:#ff006e;fill-opacity:1;stroke:none;stroke-width:0.25800392"
           inkscape:connector-curvature="0" />
        <path
           id="path2122"
           d="m 196.03203,225.34546 10.15958,14.96498 -10.15958,14.96442 h 8.59327 l 5.86322,-8.63613 5.86319,8.63613 h 8.5938 l -10.1601,-14.96442 10.1601,-14.96498 h -8.5938 l -5.86319,8.63617 -5.86322,-8.63617 z"
           style="font-style:normal;font-variant:normal;font-weight:bold;font-stretch:normal;font-size:42.33333588px;line-height:1.25;font-family:Poppins;-inkscape-font-specification:Poppins;letter-spacing:0px;word-spacing:0px;fill:#ff006e;fill-opacity:1;stroke:none;stroke-width:0.25800392"
           inkscape:connector-curvature="0" />
      </g>
      <path
         style="font-style:normal;font-variant:normal;font-weight:bold;font-stretch:normal;font-size:42.33333588px;line-height:1.25;font-family:Poppins;-inkscape-font-specification:'Poppins Bold';letter-spacing:0px;word-spacing:0px;fill:#8338ec;fill-opacity:1;stroke:none;stroke-width:0.25800392"
         d="m 360.08231,208.41217 c -2.39416,0 -4.54867,0.42398 -6.46421,1.27073 l 2.26653,6.54017 c 1.17256,-0.82784 2.58482,-1.24334 4.23902,-1.24334 1.19386,0 2.2431,0.22193 3.15175,0.65939 l -2.34456,-7.20886 c -0.27929,-0.0109 -0.56134,-0.0181 -0.84853,-0.0181 z m 18.24024,0 v 14.36037 l 4.9966,-14.36037 z m 7.2388,0 v 6.34949 5.1e-4 h 3.4292 c 1.434,0 2.7035,0.19376 3.8096,0.57981 v -1.17305 h 9.6837 c -1.1635,-1.61445 -2.6686,-2.91361 -4.5186,-3.89434 -2.3425,-1.24178 -5.1222,-1.86242 -8.3396,-1.86242 z m 34.0113,2.30684 -4.2969,6.32933 4.2969,6.32881 4.2969,-6.32881 z m 0,12.65814 -4.2963,6.32881 4.2963,6.32886 4.2969,-6.32937 z m -21.9335,-2.64635 c 0.1876,0.78956 0.2837,1.64922 0.2837,2.58279 0,1.06843 -0.1248,2.04105 -0.3705,2.92075 h 7.4652 c 0.075,-0.46353 0.1317,-0.93622 0.17,-1.41852 v -0.046 c 0.016,-0.20471 0.027,-0.41197 0.036,-0.62011 0,-0.0486 0,-0.0969 0.01,-0.14573 0.01,-0.22832 0.013,-0.45794 0.013,-0.6904 v -5.2e-4 -0.002 c 0,-0.20495 0,-0.40764 -0.01,-0.60926 0,-0.0653 -0.01,-0.12987 -0.01,-0.19482 -0.01,-0.13984 -0.013,-0.27932 -0.022,-0.41755 0,-0.065 -0.01,-0.12969 -0.013,-0.1943 -0.011,-0.15233 -0.024,-0.30387 -0.039,-0.45424 0,-0.0419 -0.01,-0.0838 -0.012,-0.12557 -0.02,-0.18808 -0.043,-0.37465 -0.069,-0.55966 v -0.0248 z m -39.89468,0.85835 0.62063,1.79162 1.15135,3.32176 h 7.35666 l -1.66295,-5.11338 z m 13.54284,0 -3.03857,9.34413 -0.85266,-2.62206 c -0.51585,0.96235 -1.19151,1.75868 -2.03451,2.38176 -1.15857,0.83115 -2.49061,1.28071 -3.99252,1.35651 l 2.07274,5.98104 c 1.14565,-0.22791 2.21657,-0.57901 3.20859,-1.0604 1.91217,-0.9145 3.47804,-2.10621 4.69739,-3.57499 1.21941,-1.46877 2.10601,-3.0624 2.66028,-4.78058 v -7.02541 z m 21.51284,9.69553 c -1.1061,0.38605 -2.3756,0.57981 -3.8096,0.57981 h -3.4292 v 6.47714 h 4.0643 c 1.1099,0 2.1673,-0.079 3.1745,-0.23261 z"
         id="path2126"
         inkscape:connector-curvature="0"
         sodipodi:nodetypes="cccscccccccccccsccccsccccccccccccsccccccscscccccccccccccccccccccccccccsccscc" />
    </g>
    <path
       d="m 294.50221,47.782759 q 5.63033,0 9.271,2.70198 3.64066,2.70199 4.52966,7.316144 h -7.66233 q -0.762,-1.579621 -2.32833,-2.49414 -1.56634,-0.956086 -3.76767,-0.956086 -3.429,0 -5.50333,2.286294 -2.07434,2.244726 -2.07434,6.110641 0,4.198468 2.159,6.443193 2.20134,2.244727 6.223,2.244727 2.58234,0 4.52967,-1.371777 1.94733,-1.413346 2.75167,-3.990623 h -9.144 v -5.112986 h 15.19766 v 7.02516 q -0.84666,2.577277 -2.70933,4.780433 -1.86267,2.203156 -4.78367,3.574933 -2.87866,1.371776 -6.604,1.371776 -4.52966,0 -7.91633,-1.870604 -3.38667,-1.912173 -5.24933,-5.320831 -1.82034,-3.408656 -1.82034,-7.773401 0,-4.364743 1.82034,-7.7734 1.86266,-3.408663 5.207,-5.279263 3.38666,-1.91217 7.874,-1.91217 z"
       style="font-style:normal;font-variant:normal;font-weight:bold;font-stretch:normal;font-size:42.33333588px;line-height:1.25;font-family:Poppins;-inkscape-font-specification:Poppins;letter-spacing:0px;word-spacing:0px;fill:#ffbe0b;fill-opacity:1;stroke:none;stroke-width:0.26458335"
       id="path3230"
       inkscape:connector-curvature="0" />
    <path
       inkscape:connector-curvature="0"
       id="path3242"
       style="font-style:normal;font-variant:normal;font-weight:bold;font-stretch:normal;font-size:42.33333588px;line-height:1.25;font-family:Poppins;-inkscape-font-specification:Poppins;letter-spacing:0px;word-spacing:0px;fill:#180a2b;fill-opacity:1;stroke:none;stroke-width:0.26458335"
       d="m 299.9196,-2.2844647 q 5.63033,0 9.271,2.70198045 3.64066,2.70198995 4.52966,7.31614395 h -7.66233 q -0.762,-1.5796209 -2.32833,-2.49414 -1.56634,-0.956086 -3.76767,-0.956086 -3.429,0 -5.50333,2.286294 -2.07434,2.2447259 -2.07434,6.1106413 0,4.198468 2.159,6.443192 2.20134,2.244727 6.223,2.244727 2.58234,0 4.52967,-1.371777 1.94733,-1.413345 2.75167,-3.990622 h -9.144 v -5.112986 h 15.19766 v 7.02516 q -0.84666,2.577276 -2.70933,4.780432 -1.86267,2.203156 -4.78367,3.574933 -2.87866,1.371776 -6.604,1.371776 -4.52966,0 -7.91633,-1.870604 -3.38667,-1.912173 -5.24933,-5.320831 -1.82034,-3.408655 -1.82034,-7.7734 0,-4.3647434 1.82034,-7.7734003 1.86266,-3.408663 5.207,-5.27926295 3.38666,-1.91217045 7.874,-1.91217045 z" />
    <path
       inkscape:connector-curvature="0"
       id="path3244"
       style="font-style:normal;font-variant:normal;font-weight:bold;font-stretch:normal;font-size:42.33333588px;line-height:1.25;font-family:Poppins;-inkscape-font-specification:Poppins;letter-spacing:0px;word-spacing:0px;fill:#180a2b;fill-opacity:1;stroke:none;stroke-width:0.26458335"
       d="m 339.45893,12.616871 q 0,4.402667 -1.905,7.831666 -1.86266,3.386667 -5.41866,5.291667 -3.51367,1.905 -8.29734,1.905 h -11.303 V -2.2844747 h 11.303 q 4.826,0 8.33967,1.86267045 3.51367,1.86265995 5.37633,5.24934095 1.905,3.3866669 1.905,7.7893343 z m -16.256,8.551333 q 4.23334,0 6.56167,-2.243666 2.37067,-2.243667 2.37067,-6.307667 0,-4.0640004 -2.37067,-6.3076673 -2.32833,-2.243667 -6.56167,-2.243667 h -3.429 V 21.168204 Z" />
    <path
       inkscape:connector-curvature="0"
       style="font-style:normal;font-variant:normal;font-weight:bold;font-stretch:normal;font-size:42.33333588px;line-height:1.25;font-family:Poppins;-inkscape-font-specification:Poppins;letter-spacing:0px;word-spacing:0px;fill:#180a2b;fill-opacity:1;stroke:none;stroke-width:0.26458335"
       d="m 330.47673,-2.2844647 10.4192,15.3458117 -10.4192,15.345229 h 8.81287 l 6.01305,-8.8559 6.01302,8.8559 h 8.81341 L 349.70935,13.061347 360.12908,-2.2844647 h -8.81341 l -6.01302,8.8559414 -6.01305,-8.8559414 z"
       id="path3246" />
    <path
       inkscape:connector-curvature="0"
       id="path3248"
       style="font-style:normal;font-variant:normal;font-weight:bold;font-stretch:normal;font-size:42.33333588px;line-height:1.25;font-family:Poppins;-inkscape-font-specification:Poppins;letter-spacing:0px;word-spacing:0px;fill:#ff006e;fill-opacity:1;stroke:none;stroke-width:0.26458335"
       d="m 297.37959,-2.2844647 7.32367,22.5213357 7.32367,-22.5213357 h 7.747 l -10.414,29.9296687 h -9.35567 L 289.63259,-2.2844647 Z" />
    <path
       inkscape:connector-curvature="0"
       id="path3250"
       style="font-style:normal;font-variant:normal;font-weight:bold;font-stretch:normal;font-size:42.33333588px;line-height:1.25;font-family:Poppins;-inkscape-font-specification:Poppins;letter-spacing:0px;word-spacing:0px;fill:#ff006e;fill-opacity:1;stroke:none;stroke-width:0.26458335"
       d="m 339.2896,-2.2844647 v 5.7573304 h -12.27666 v 6.5616723 h 9.48266 v 5.503333 h -9.48266 v 12.107333 h -7.23901 V -2.2844647 Z" />
    <path
       id="path3252"
       d="m 339.29015,-2.2844647 10.4192,15.3458117 -10.4192,15.345229 h 8.81287 l 6.01305,-8.8559 6.01302,8.8559 h 8.81341 L 358.52277,13.061347 368.9425,-2.2844647 h -8.81341 l -6.01302,8.8559414 -6.01305,-8.8559414 z"
       style="font-style:normal;font-variant:normal;font-weight:bold;font-stretch:normal;font-size:42.33333588px;line-height:1.25;font-family:Poppins;-inkscape-font-specification:Poppins;letter-spacing:0px;word-spacing:0px;fill:#ff006e;fill-opacity:1;stroke:none;stroke-width:0.26458335"
       inkscape:connector-curvature="0" />
    <path
       d="m 334.04154,62.684094 q 0,4.402667 -1.905,7.831667 -1.86266,3.386667 -5.41866,5.291667 -3.51367,1.905 -8.29734,1.905 h -11.303 V 47.782749 h 11.303 q 4.826,0 8.33967,1.86267 3.51367,1.86266 5.37633,5.249341 1.905,3.386667 1.905,7.789334 z m -16.256,8.551334 q 4.23334,0 6.56167,-2.243667 2.37067,-2.243667 2.37067,-6.307667 0,-4.064 -2.37067,-6.307667 -2.32833,-2.243667 -6.56167,-2.243667 h -3.429 v 17.102668 z"
       style="font-style:normal;font-variant:normal;font-weight:bold;font-stretch:normal;font-size:42.33333588px;line-height:1.25;font-family:Poppins;-inkscape-font-specification:Poppins;letter-spacing:0px;word-spacing:0px;fill:#ffbe0b;fill-opacity:1;stroke:none;stroke-width:0.26458335"
       id="path3232"
       inkscape:connector-curvature="0" />
    <path
       id="path3234"
       d="m 325.27797,47.782759 10.16072,14.965119 -10.16072,14.964552 h 8.59424 l 5.86388,-8.636207 5.86386,8.636207 h 8.59477 L 344.03347,62.747878 354.19472,47.782759 h -8.59477 l -5.86386,8.636247 -5.86388,-8.636247 z"
       style="font-style:normal;font-variant:normal;font-weight:bold;font-stretch:normal;font-size:42.33333588px;line-height:1.25;font-family:Poppins;-inkscape-font-specification:Poppins;letter-spacing:0px;word-spacing:0px;fill:#ffbe0b;fill-opacity:1;stroke:none;stroke-width:0.26458335"
       inkscape:connector-curvature="0" />
    <path
       d="m 291.9622,47.782759 7.32367,22.521336 7.32367,-22.521336 h 7.747 l -10.414,29.929669 h -9.35567 L 284.2152,47.782759 Z"
       style="font-style:normal;font-variant:normal;font-weight:bold;font-stretch:normal;font-size:42.33333588px;line-height:1.25;font-family:Poppins;-inkscape-font-specification:Poppins;letter-spacing:0px;word-spacing:0px;fill:#ff006e;fill-opacity:1;stroke:none;stroke-width:0.26458335"
       id="path3236"
       inkscape:connector-curvature="0" />
    <path
       d="m 333.87221,47.782759 3.90914,5.75733 h -16.1858 v 6.561672 h 9.48266 v 5.503333 h -9.48266 v 12.107334 h -7.23901 V 47.782759 Z"
       style="font-style:normal;font-variant:normal;font-weight:bold;font-stretch:normal;font-size:42.33333588px;line-height:1.25;font-family:Poppins;-inkscape-font-specification:Poppins;letter-spacing:0px;word-spacing:0px;fill:#ff006e;fill-opacity:1;stroke:none;stroke-width:0.26458335"
       id="path3238"
       inkscape:connector-curvature="0"
       sodipodi:nodetypes="ccccccccccc" />
    <path
       inkscape:connector-curvature="0"
       style="font-style:normal;font-variant:normal;font-weight:bold;font-stretch:normal;font-size:42.33333588px;line-height:1.25;font-family:Poppins;-inkscape-font-specification:Poppins;letter-spacing:0px;word-spacing:0px;fill:#ff006e;fill-opacity:1;stroke:none;stroke-width:0.26458335"
       d="m 333.87221,47.782759 10.16072,14.965119 -10.16072,14.964552 h 8.59424 l 5.86388,-8.636207 5.86386,8.636207 h 8.59477 L 352.62772,62.747878 362.78896,47.782759 h -8.59477 l -5.86386,8.636247 -5.86388,-8.636247 z"
       id="path3240" />
    <path
       style="font-style:normal;font-variant:normal;font-weight:bold;font-stretch:normal;font-size:42.33333588px;line-height:1.25;font-family:Poppins;-inkscape-font-specification:Poppins;letter-spacing:0px;word-spacing:0px;fill:#8338ec;fill-opacity:1;stroke:none;stroke-width:0.26458335"
       d="m 307.11778,47.782828 v 6.575309 c -0.48687,-0.92837 -1.09514,-1.772418 -1.82314,-2.533179 l -1.94304,5.975863 h 3.76618 v 3.159496 h -4.79351 l -1.66294,5.112866 h 1.96887 c -0.53623,1.718186 -1.45355,3.048223 -2.75177,3.990457 -1.29822,0.914516 -2.80788,1.372007 -4.52944,1.372007 -1.135,0 -2.15984,-0.135903 -3.07733,-0.404108 l 2.3151,6.680729 c 2.48356,0 4.68514,-0.456975 6.60425,-1.371494 1.6924,-0.794793 3.11777,-1.799299 4.27726,-3.012734 l 8.88835,-25.545212 z m 7.23884,0 v 6.35 h 3.42873 c 1.43423,0 2.70381,0.194514 3.8101,0.580843 v -1.173573 h 16.18558 l -3.90881,-5.75727 h -8.59431 l 1.15032,1.693953 c -2.27198,-1.12847 -4.94075,-1.693953 -8.00778,-1.693953 z m 39.83736,0 -5.86373,8.636164 5.86424,-8.636164 z m -5.86373,8.636164 -4.29689,-6.328812 -4.29741,6.328812 4.29689,6.328813 -4.29689,6.328296 4.29741,6.328815 4.29689,-6.328815 -4.29689,-6.328296 z m 0,12.657109 5.86373,8.636167 h 5.1e-4 z M 292.01379,47.942507 c -1.98115,0.261091 -3.77705,0.844068 -5.38572,1.752348 -0.5023,0.280959 -0.97823,0.589421 -1.4304,0.922425 l 2.67788,7.728728 c 0.30981,-0.631245 0.69719,-1.201825 1.16582,-1.708941 1.29223,-1.424278 2.97884,-2.182479 5.05963,-2.275829 z m 34.42064,12.159464 c 0.18761,0.789342 0.28371,1.648897 0.28371,2.582273 0,1.068432 -0.1247,2.041051 -0.37052,2.920751 h 4.73046 v -5.503024 z m -32.94837,0.858346 v 5.112866 h 4.42401 l -1.66294,-5.112866 z m 28.10939,9.6945 c -1.10629,0.386329 -2.37587,0.580842 -3.8101,0.580842 h -3.42873 v 6.476609 h 4.06383 c 1.10994,0 2.16778,-0.07844 3.175,-0.232545 z"
       id="path3274"
       inkscape:connector-curvature="0" />
  </g>
</svg>
